<svg xmlns="http://www.w3.org/2000/svg"  viewBox="0 0 48 48" width="48px" height="48px"><path d="M 8.5 7 C 5.4802259 7 3 9.4802259 3 12.5 L 3 35.5 C 3 38.519774 5.4802259 41 8.5 41 L 39.5 41 C 42.519774 41 45 38.519774 45 35.5 L 45 12.5 C 45 9.4802259 42.519774 7 39.5 7 L 8.5 7 z M 8.5 10 L 39.5 10 C 40.898226 10 42 11.101774 42 12.5 L 42 35.5 C 42 36.898226 40.898226 38 39.5 38 L 8.5 38 C 7.1017741 38 6 36.898226 6 35.5 L 6 12.5 C 6 11.101774 7.1017741 10 8.5 10 z M 20.974609 17 C 20.631984 17.004375 20.291328 17.095891 19.986328 17.275391 C 19.375328 17.635391 19 18.292 19 19 L 19 29 C 19 29.708 19.375328 30.364609 19.986328 30.724609 C 20.298328 30.908609 20.649 31 21 31 C 21.334 31 21.668703 30.915047 21.970703 30.748047 L 30.970703 25.748047 C 31.605703 25.395047 32 24.727 32 24 C 32 23.273 31.605703 22.604953 30.970703 22.251953 L 21.970703 17.251953 C 21.661203 17.079953 21.317234 16.995625 20.974609 17 z"/></svg>