<?xml version="1.0" encoding="UTF-8"?>
<svg version="1.1" xmlns="http://www.w3.org/2000/svg" width="250" height="250">
<path d="M0 0 C23.69671591 24.6663033 35.36906184 56.4054678 34.8984375 90.4765625 C34.04139541 124.49129842 19.420144 153.6756045 -4.55078125 177.40234375 C-15.51383174 187.61179666 -27.32697005 195.5964392 -41.25 201.125 C-42.27818848 201.53492188 -42.27818848 201.53492188 -43.32714844 201.953125 C-75.64037858 214.4939118 -110.09689567 212.19254778 -141.6875 198.8125 C-154.39476591 193.14540582 -164.92989688 184.28902599 -175.25 175.125 C-175.90484375 174.55523437 -176.5596875 173.98546875 -177.234375 173.3984375 C-199.30030191 152.90864823 -211.00625872 121.33670058 -212.22875977 91.73779297 C-212.55478825 77.15260538 -210.76826214 63.00784506 -206.25 49.125 C-206.04391113 48.48643066 -205.83782227 47.84786133 -205.62548828 47.18994141 C-200.54027231 31.74412088 -193.04737217 18.3246283 -182.25 6.125 C-181.68925781 5.43277344 -181.12851563 4.74054687 -180.55078125 4.02734375 C-173.04834514 -5.1100058 -163.14287956 -12.50522569 -153.25 -18.875 C-152.54480225 -19.33366455 -151.83960449 -19.7923291 -151.11303711 -20.26489258 C-144.99758106 -24.10859975 -138.90129309 -26.77597519 -132.0625 -29.0625 C-131.05582275 -29.40418213 -130.04914551 -29.74586426 -129.01196289 -30.09790039 C-82.78419119 -45.42331114 -34.78834749 -33.48581966 0 0 Z " fill="#1565AB" transform="translate(214.25,38.875)"/>
<path d="M0 0 C16.14741155 3.10987185 28.47620295 11.89189563 37.76171875 25.18359375 C40.17457972 29.04103092 42.01429616 32.79570656 43.5625 37.0625 C43.82674302 37.78406847 44.09098604 38.50563694 44.36323643 39.24907112 C46.61304793 45.99545422 46.99579836 52.16553302 46.96655273 59.24169922 C46.97341599 60.41691635 46.98027924 61.59213348 46.98735046 62.80296326 C47.00553981 66.65783012 47.0017944 70.51228727 46.99609375 74.3671875 C46.99857287 76.37602658 47.00292033 78.38485577 47.00744683 80.39369118 C47.02143802 86.69382068 47.01997202 92.99381437 47.00854492 99.29394531 C46.99702826 105.78689509 47.01121056 112.27943352 47.0379414 118.77232921 C47.0600874 124.36153625 47.06673951 129.950614 47.06086498 135.5398618 C47.0574964 138.87219939 47.06161514 142.20421382 47.07711601 145.53652573 C47.09194469 149.2445553 47.08141016 152.9516677 47.06420898 156.65966797 C47.07387695 157.76101578 47.08354492 158.86236359 47.09350586 159.99708557 C47.08367172 161.00624527 47.07383759 162.01540497 47.06370544 163.05514526 C47.06349616 163.93076551 47.06328688 164.80638577 47.06307125 165.70853996 C46.39375389 168.85603658 45.01914505 170.05174902 42.5625 172.0625 C36.23508877 174.32228972 30.11113443 171.66452406 24.26953125 169.02734375 C8.28331979 160.68056078 -1.07084522 148.09683729 -6.4375 131.0625 C-7.35179478 127.95609049 -7.56927395 125.17486133 -7.58467102 121.93884277 C-7.59182632 120.90418381 -7.59898163 119.86952484 -7.60635376 118.80351257 C-7.60904266 117.67403702 -7.61173157 116.54456146 -7.61450195 115.38085938 C-7.62107315 114.18701126 -7.62764435 112.99316315 -7.63441467 111.76313782 C-7.65413388 107.81084835 -7.66580721 103.85857217 -7.67578125 99.90625 C-7.67983015 98.54428589 -7.68394712 97.18232198 -7.68813133 95.82035828 C-7.70716505 89.4248824 -7.72140339 83.02941797 -7.7297433 76.63391924 C-7.73952812 69.25283833 -7.76588726 61.8720563 -7.80624419 54.49108076 C-7.83638308 48.78312661 -7.85120979 43.07525831 -7.85452431 37.36722612 C-7.85687615 33.95876819 -7.86585408 30.55063025 -7.89098549 27.14225769 C-7.91521222 23.34263967 -7.91444211 19.54381147 -7.9074707 15.74414062 C-7.92028076 14.61466507 -7.93309082 13.48518951 -7.94628906 12.32148743 C-7.93934525 11.28682846 -7.93240143 10.25216949 -7.92524719 9.18615723 C-7.92763555 8.28799538 -7.9300239 7.38983353 -7.93248463 6.46445465 C-6.97678547 1.82684386 -4.5989863 0.08361793 0 0 Z " fill="#FAFAFA" transform="translate(74.4375,45.9375)"/>
<path d="M0 0 C2.71187845 0.92812952 5.21083001 2.17711704 7.75 3.5 C8.45519775 3.86383789 9.16039551 4.22767578 9.88696289 4.60253906 C24.74314851 12.48728738 34.59351326 23.97362859 40 40 C44.11761509 54.18727753 41.99830073 71.16738696 35 84 C26.37251643 98.26556639 14.04533259 107.42842479 -2 112 C-6.03093401 111.93050114 -8.15134947 111.76426775 -11.17759705 109.03892517 C-13.72418654 104.79239183 -13.56879845 101.30596794 -13.53344727 96.43969727 C-13.54206284 95.4830014 -13.55067841 94.52630554 -13.55955505 93.5406189 C-13.5822334 90.38227176 -13.57547231 87.22481062 -13.56640625 84.06640625 C-13.57164117 81.86831905 -13.57791716 79.67023411 -13.58518982 77.47215271 C-13.59559764 72.86633735 -13.59102713 68.26083086 -13.57641602 63.6550293 C-13.55923212 57.75556481 -13.58271736 51.85707461 -13.61790562 45.95771885 C-13.63987719 41.4186102 -13.63843857 36.87973473 -13.6301403 32.34058952 C-13.62932058 30.16569895 -13.636188 27.99079129 -13.65091133 25.81595039 C-13.6683512 22.77325885 -13.65381823 19.73231868 -13.63110352 16.68969727 C-13.64279572 15.79340103 -13.65448792 14.8971048 -13.66653442 13.97364807 C-13.60136315 9.6782048 -13.33661287 6.86523246 -10.58555603 3.45689392 C-6.8920089 -0.05285538 -5.05665804 -0.42334811 0 0 Z " fill="#F7F8F9" transform="translate(144,107)"/>
<path d="M0 0 C0.66 0.33 1.32 0.66 2 1 C-3.28 6.28 -8.56 11.56 -14 17 C-14.66 16.67 -15.32 16.34 -16 16 C-10.96679794 10.22494276 -5.96260189 4.82082706 0 0 Z " fill="#87B0D4" transform="translate(47,30)"/>
</svg>
